<mxfile host="app.diagrams.net" modified="2023-06-14T12:44:28.712Z" agent="Mozilla/5.0 (Macintosh; Intel Mac OS X 10_15_7) AppleWebKit/537.36 (KHTML, like Gecko) Chrome/114.0.0.0 Safari/537.36" etag="eH5wYb1i1loSN3UZ5ygD" version="21.3.8" type="github">
  <diagram id="C5RBs43oDa-KdzZeNtuy" name="Page-1">
    <mxGraphModel dx="2261" dy="1942" grid="1" gridSize="10" guides="1" tooltips="1" connect="1" arrows="1" fold="1" page="1" pageScale="1" pageWidth="827" pageHeight="1169" math="0" shadow="0">
      <root>
        <mxCell id="WIyWlLk6GJQsqaUBKTNV-0" />
        <mxCell id="WIyWlLk6GJQsqaUBKTNV-1" parent="WIyWlLk6GJQsqaUBKTNV-0" />
        <mxCell id="aKXcUhwsYdAueO1rFDs8-0" value="MASTER" style="shape=cylinder3;whiteSpace=wrap;html=1;boundedLbl=1;backgroundOutline=1;size=15;" vertex="1" parent="WIyWlLk6GJQsqaUBKTNV-1">
          <mxGeometry x="650" y="160" width="100" height="60" as="geometry" />
        </mxCell>
        <mxCell id="aKXcUhwsYdAueO1rFDs8-1" value="FAIR" style="shape=cylinder3;whiteSpace=wrap;html=1;boundedLbl=1;backgroundOutline=1;size=15;" vertex="1" parent="WIyWlLk6GJQsqaUBKTNV-1">
          <mxGeometry x="650" y="395" width="100" height="60" as="geometry" />
        </mxCell>
        <mxCell id="aKXcUhwsYdAueO1rFDs8-2" value="B2B" style="shape=cylinder3;whiteSpace=wrap;html=1;boundedLbl=1;backgroundOutline=1;size=15;" vertex="1" parent="WIyWlLk6GJQsqaUBKTNV-1">
          <mxGeometry x="650" y="478.5" width="100" height="60" as="geometry" />
        </mxCell>
        <mxCell id="aKXcUhwsYdAueO1rFDs8-9" style="edgeStyle=orthogonalEdgeStyle;rounded=0;orthogonalLoop=1;jettySize=auto;html=1;exitX=1;exitY=0.5;exitDx=0;exitDy=0;entryX=1;entryY=0.5;entryDx=0;entryDy=0;" edge="1" parent="WIyWlLk6GJQsqaUBKTNV-1" source="aKXcUhwsYdAueO1rFDs8-3" target="aKXcUhwsYdAueO1rFDs8-7">
          <mxGeometry relative="1" as="geometry">
            <Array as="points">
              <mxPoint x="570" y="190" />
              <mxPoint x="570" y="425" />
            </Array>
          </mxGeometry>
        </mxCell>
        <mxCell id="aKXcUhwsYdAueO1rFDs8-13" value="Sync" style="edgeLabel;html=1;align=center;verticalAlign=middle;resizable=0;points=[];" vertex="1" connectable="0" parent="aKXcUhwsYdAueO1rFDs8-9">
          <mxGeometry x="0.024" y="3" relative="1" as="geometry">
            <mxPoint as="offset" />
          </mxGeometry>
        </mxCell>
        <mxCell id="aKXcUhwsYdAueO1rFDs8-10" style="edgeStyle=orthogonalEdgeStyle;rounded=0;orthogonalLoop=1;jettySize=auto;html=1;entryX=1;entryY=0.75;entryDx=0;entryDy=0;" edge="1" parent="WIyWlLk6GJQsqaUBKTNV-1" source="aKXcUhwsYdAueO1rFDs8-3" target="aKXcUhwsYdAueO1rFDs8-8">
          <mxGeometry relative="1" as="geometry">
            <Array as="points">
              <mxPoint x="600" y="190" />
              <mxPoint x="600" y="520" />
            </Array>
          </mxGeometry>
        </mxCell>
        <mxCell id="aKXcUhwsYdAueO1rFDs8-14" value="Sync" style="edgeLabel;html=1;align=center;verticalAlign=middle;resizable=0;points=[];" vertex="1" connectable="0" parent="aKXcUhwsYdAueO1rFDs8-10">
          <mxGeometry x="0.191" y="4" relative="1" as="geometry">
            <mxPoint as="offset" />
          </mxGeometry>
        </mxCell>
        <mxCell id="aKXcUhwsYdAueO1rFDs8-61" style="edgeStyle=orthogonalEdgeStyle;rounded=0;orthogonalLoop=1;jettySize=auto;html=1;exitX=1;exitY=0.5;exitDx=0;exitDy=0;entryX=1;entryY=0.5;entryDx=0;entryDy=0;" edge="1" parent="WIyWlLk6GJQsqaUBKTNV-1" source="aKXcUhwsYdAueO1rFDs8-3" target="aKXcUhwsYdAueO1rFDs8-60">
          <mxGeometry relative="1" as="geometry">
            <Array as="points">
              <mxPoint x="520" y="190" />
              <mxPoint x="544" y="190" />
              <mxPoint x="544" y="278" />
            </Array>
          </mxGeometry>
        </mxCell>
        <mxCell id="aKXcUhwsYdAueO1rFDs8-3" value="MDM" style="rounded=0;whiteSpace=wrap;html=1;" vertex="1" parent="WIyWlLk6GJQsqaUBKTNV-1">
          <mxGeometry x="410" y="165" width="110" height="45" as="geometry" />
        </mxCell>
        <mxCell id="aKXcUhwsYdAueO1rFDs8-4" value="" style="endArrow=classic;html=1;rounded=0;" edge="1" parent="WIyWlLk6GJQsqaUBKTNV-1">
          <mxGeometry relative="1" as="geometry">
            <mxPoint x="-210" y="100" as="sourcePoint" />
            <mxPoint x="830" y="100" as="targetPoint" />
          </mxGeometry>
        </mxCell>
        <mxCell id="aKXcUhwsYdAueO1rFDs8-6" value="上游" style="edgeLabel;resizable=0;html=1;align=left;verticalAlign=bottom;" connectable="0" vertex="1" parent="aKXcUhwsYdAueO1rFDs8-4">
          <mxGeometry x="-1" relative="1" as="geometry" />
        </mxCell>
        <mxCell id="aKXcUhwsYdAueO1rFDs8-7" value="MDM-Mirror" style="rounded=0;whiteSpace=wrap;html=1;" vertex="1" parent="WIyWlLk6GJQsqaUBKTNV-1">
          <mxGeometry x="410" y="400" width="110" height="50" as="geometry" />
        </mxCell>
        <mxCell id="aKXcUhwsYdAueO1rFDs8-8" value="MDM-Mirror" style="rounded=0;whiteSpace=wrap;html=1;" vertex="1" parent="WIyWlLk6GJQsqaUBKTNV-1">
          <mxGeometry x="410" y="483.5" width="110" height="50" as="geometry" />
        </mxCell>
        <mxCell id="aKXcUhwsYdAueO1rFDs8-12" style="edgeStyle=orthogonalEdgeStyle;rounded=0;orthogonalLoop=1;jettySize=auto;html=1;entryX=0.5;entryY=0;entryDx=0;entryDy=0;" edge="1" parent="WIyWlLk6GJQsqaUBKTNV-1" source="aKXcUhwsYdAueO1rFDs8-11" target="aKXcUhwsYdAueO1rFDs8-3">
          <mxGeometry relative="1" as="geometry" />
        </mxCell>
        <mxCell id="aKXcUhwsYdAueO1rFDs8-11" value="MDM" style="rounded=0;whiteSpace=wrap;html=1;" vertex="1" parent="WIyWlLk6GJQsqaUBKTNV-1">
          <mxGeometry x="410" y="-10" width="110" height="50" as="geometry" />
        </mxCell>
        <mxCell id="aKXcUhwsYdAueO1rFDs8-53" style="edgeStyle=orthogonalEdgeStyle;rounded=0;orthogonalLoop=1;jettySize=auto;html=1;exitX=0.5;exitY=0;exitDx=0;exitDy=0;entryX=0.834;entryY=1.044;entryDx=0;entryDy=0;entryPerimeter=0;" edge="1" parent="WIyWlLk6GJQsqaUBKTNV-1" source="aKXcUhwsYdAueO1rFDs8-16" target="aKXcUhwsYdAueO1rFDs8-30">
          <mxGeometry relative="1" as="geometry" />
        </mxCell>
        <mxCell id="aKXcUhwsYdAueO1rFDs8-16" value="OMS-Order" style="rounded=0;whiteSpace=wrap;html=1;" vertex="1" parent="WIyWlLk6GJQsqaUBKTNV-1">
          <mxGeometry x="180" y="255" width="110" height="45" as="geometry" />
        </mxCell>
        <mxCell id="aKXcUhwsYdAueO1rFDs8-41" style="edgeStyle=orthogonalEdgeStyle;rounded=0;orthogonalLoop=1;jettySize=auto;html=1;exitX=1;exitY=0.5;exitDx=0;exitDy=0;entryX=1;entryY=0.5;entryDx=0;entryDy=0;" edge="1" parent="WIyWlLk6GJQsqaUBKTNV-1" source="aKXcUhwsYdAueO1rFDs8-18" target="aKXcUhwsYdAueO1rFDs8-16">
          <mxGeometry relative="1" as="geometry">
            <Array as="points">
              <mxPoint x="340" y="425" />
              <mxPoint x="340" y="278" />
            </Array>
          </mxGeometry>
        </mxCell>
        <mxCell id="aKXcUhwsYdAueO1rFDs8-50" value="3" style="edgeLabel;html=1;align=center;verticalAlign=middle;resizable=0;points=[];" vertex="1" connectable="0" parent="aKXcUhwsYdAueO1rFDs8-41">
          <mxGeometry x="0.0146" y="-1" relative="1" as="geometry">
            <mxPoint as="offset" />
          </mxGeometry>
        </mxCell>
        <mxCell id="aKXcUhwsYdAueO1rFDs8-18" value="FAIR-Order" style="rounded=0;whiteSpace=wrap;html=1;" vertex="1" parent="WIyWlLk6GJQsqaUBKTNV-1">
          <mxGeometry x="120" y="400" width="110" height="50" as="geometry" />
        </mxCell>
        <mxCell id="aKXcUhwsYdAueO1rFDs8-42" style="edgeStyle=orthogonalEdgeStyle;rounded=0;orthogonalLoop=1;jettySize=auto;html=1;exitX=1;exitY=0.5;exitDx=0;exitDy=0;entryX=1;entryY=0.5;entryDx=0;entryDy=0;" edge="1" parent="WIyWlLk6GJQsqaUBKTNV-1" source="aKXcUhwsYdAueO1rFDs8-19" target="aKXcUhwsYdAueO1rFDs8-16">
          <mxGeometry relative="1" as="geometry">
            <Array as="points">
              <mxPoint x="360" y="509" />
              <mxPoint x="360" y="278" />
            </Array>
          </mxGeometry>
        </mxCell>
        <mxCell id="aKXcUhwsYdAueO1rFDs8-52" value="5" style="edgeLabel;html=1;align=center;verticalAlign=middle;resizable=0;points=[];" vertex="1" connectable="0" parent="aKXcUhwsYdAueO1rFDs8-42">
          <mxGeometry x="-0.5315" y="-3" relative="1" as="geometry">
            <mxPoint x="32" y="-3" as="offset" />
          </mxGeometry>
        </mxCell>
        <mxCell id="aKXcUhwsYdAueO1rFDs8-19" value="B2B-Order" style="rounded=0;whiteSpace=wrap;html=1;" vertex="1" parent="WIyWlLk6GJQsqaUBKTNV-1">
          <mxGeometry x="90" y="483.5" width="110" height="50" as="geometry" />
        </mxCell>
        <mxCell id="aKXcUhwsYdAueO1rFDs8-22" value="OMS" style="rounded=0;whiteSpace=wrap;html=1;" vertex="1" parent="WIyWlLk6GJQsqaUBKTNV-1">
          <mxGeometry x="100" y="-10" width="110" height="50" as="geometry" />
        </mxCell>
        <mxCell id="aKXcUhwsYdAueO1rFDs8-24" value="ERP" style="rounded=0;whiteSpace=wrap;html=1;" vertex="1" parent="WIyWlLk6GJQsqaUBKTNV-1">
          <mxGeometry x="110" y="-130" width="400" height="60" as="geometry" />
        </mxCell>
        <mxCell id="aKXcUhwsYdAueO1rFDs8-29" value="OMS" style="shape=cylinder3;whiteSpace=wrap;html=1;boundedLbl=1;backgroundOutline=1;size=15;" vertex="1" parent="WIyWlLk6GJQsqaUBKTNV-1">
          <mxGeometry x="650" y="240" width="100" height="60" as="geometry" />
        </mxCell>
        <mxCell id="aKXcUhwsYdAueO1rFDs8-47" style="edgeStyle=orthogonalEdgeStyle;rounded=0;orthogonalLoop=1;jettySize=auto;html=1;entryX=0.073;entryY=-0.06;entryDx=0;entryDy=0;entryPerimeter=0;" edge="1" parent="WIyWlLk6GJQsqaUBKTNV-1" source="aKXcUhwsYdAueO1rFDs8-30" target="aKXcUhwsYdAueO1rFDs8-18">
          <mxGeometry relative="1" as="geometry">
            <Array as="points">
              <mxPoint x="128" y="230" />
              <mxPoint x="128" y="230" />
            </Array>
          </mxGeometry>
        </mxCell>
        <mxCell id="aKXcUhwsYdAueO1rFDs8-48" value="2" style="edgeLabel;html=1;align=center;verticalAlign=middle;resizable=0;points=[];" vertex="1" connectable="0" parent="aKXcUhwsYdAueO1rFDs8-47">
          <mxGeometry x="-0.1979" relative="1" as="geometry">
            <mxPoint as="offset" />
          </mxGeometry>
        </mxCell>
        <mxCell id="aKXcUhwsYdAueO1rFDs8-49" style="edgeStyle=orthogonalEdgeStyle;rounded=0;orthogonalLoop=1;jettySize=auto;html=1;entryX=0;entryY=0;entryDx=0;entryDy=0;" edge="1" parent="WIyWlLk6GJQsqaUBKTNV-1" source="aKXcUhwsYdAueO1rFDs8-30" target="aKXcUhwsYdAueO1rFDs8-19">
          <mxGeometry relative="1" as="geometry">
            <Array as="points">
              <mxPoint x="90" y="290" />
              <mxPoint x="90" y="290" />
            </Array>
          </mxGeometry>
        </mxCell>
        <mxCell id="aKXcUhwsYdAueO1rFDs8-51" value="4" style="edgeLabel;html=1;align=center;verticalAlign=middle;resizable=0;points=[];" vertex="1" connectable="0" parent="aKXcUhwsYdAueO1rFDs8-49">
          <mxGeometry x="0.1773" y="-1" relative="1" as="geometry">
            <mxPoint x="1" y="2" as="offset" />
          </mxGeometry>
        </mxCell>
        <mxCell id="aKXcUhwsYdAueO1rFDs8-30" value="SCM" style="rounded=0;whiteSpace=wrap;html=1;" vertex="1" parent="WIyWlLk6GJQsqaUBKTNV-1">
          <mxGeometry x="-450" y="165" width="820" height="45" as="geometry" />
        </mxCell>
        <mxCell id="aKXcUhwsYdAueO1rFDs8-33" value="OTB" style="shape=cylinder3;whiteSpace=wrap;html=1;boundedLbl=1;backgroundOutline=1;size=15;" vertex="1" parent="WIyWlLk6GJQsqaUBKTNV-1">
          <mxGeometry x="650" y="320" width="100" height="60" as="geometry" />
        </mxCell>
        <mxCell id="aKXcUhwsYdAueO1rFDs8-38" style="edgeStyle=orthogonalEdgeStyle;rounded=0;orthogonalLoop=1;jettySize=auto;html=1;entryX=1;entryY=0.5;entryDx=0;entryDy=0;" edge="1" parent="WIyWlLk6GJQsqaUBKTNV-1" source="aKXcUhwsYdAueO1rFDs8-34" target="aKXcUhwsYdAueO1rFDs8-16">
          <mxGeometry relative="1" as="geometry">
            <Array as="points">
              <mxPoint x="320" y="350" />
              <mxPoint x="320" y="278" />
            </Array>
          </mxGeometry>
        </mxCell>
        <mxCell id="aKXcUhwsYdAueO1rFDs8-46" value="1" style="edgeLabel;html=1;align=center;verticalAlign=middle;resizable=0;points=[];" vertex="1" connectable="0" parent="aKXcUhwsYdAueO1rFDs8-38">
          <mxGeometry x="0.1938" y="1" relative="1" as="geometry">
            <mxPoint as="offset" />
          </mxGeometry>
        </mxCell>
        <mxCell id="aKXcUhwsYdAueO1rFDs8-34" value="OTB-Order" style="rounded=0;whiteSpace=wrap;html=1;" vertex="1" parent="WIyWlLk6GJQsqaUBKTNV-1">
          <mxGeometry x="150" y="327.5" width="110" height="45" as="geometry" />
        </mxCell>
        <mxCell id="aKXcUhwsYdAueO1rFDs8-59" value="OMS-Shop2" style="rounded=0;whiteSpace=wrap;html=1;" vertex="1" parent="WIyWlLk6GJQsqaUBKTNV-1">
          <mxGeometry x="-120" y="255" width="110" height="45" as="geometry" />
        </mxCell>
        <mxCell id="aKXcUhwsYdAueO1rFDs8-60" value="MDM-Mirror" style="rounded=0;whiteSpace=wrap;html=1;" vertex="1" parent="WIyWlLk6GJQsqaUBKTNV-1">
          <mxGeometry x="410" y="252.5" width="110" height="50" as="geometry" />
        </mxCell>
        <mxCell id="aKXcUhwsYdAueO1rFDs8-64" style="edgeStyle=orthogonalEdgeStyle;rounded=0;orthogonalLoop=1;jettySize=auto;html=1;exitX=0.5;exitY=1;exitDx=0;exitDy=0;endArrow=none;endFill=0;" edge="1" parent="WIyWlLk6GJQsqaUBKTNV-1" source="aKXcUhwsYdAueO1rFDs8-62" target="aKXcUhwsYdAueO1rFDs8-63">
          <mxGeometry relative="1" as="geometry" />
        </mxCell>
        <mxCell id="aKXcUhwsYdAueO1rFDs8-65" value="1 : n" style="edgeLabel;html=1;align=center;verticalAlign=middle;resizable=0;points=[];" vertex="1" connectable="0" parent="aKXcUhwsYdAueO1rFDs8-64">
          <mxGeometry x="-0.4667" relative="1" as="geometry">
            <mxPoint y="14" as="offset" />
          </mxGeometry>
        </mxCell>
        <mxCell id="aKXcUhwsYdAueO1rFDs8-70" style="edgeStyle=orthogonalEdgeStyle;rounded=0;orthogonalLoop=1;jettySize=auto;html=1;exitX=0;exitY=0.5;exitDx=0;exitDy=0;" edge="1" parent="WIyWlLk6GJQsqaUBKTNV-1" source="aKXcUhwsYdAueO1rFDs8-75" target="aKXcUhwsYdAueO1rFDs8-69">
          <mxGeometry relative="1" as="geometry">
            <Array as="points">
              <mxPoint x="-400" y="-330" />
              <mxPoint x="-400" y="-240" />
            </Array>
          </mxGeometry>
        </mxCell>
        <mxCell id="aKXcUhwsYdAueO1rFDs8-71" value="生成/创建 1 : 1" style="edgeLabel;html=1;align=center;verticalAlign=middle;resizable=0;points=[];" vertex="1" connectable="0" parent="aKXcUhwsYdAueO1rFDs8-70">
          <mxGeometry x="-0.04" y="-2" relative="1" as="geometry">
            <mxPoint as="offset" />
          </mxGeometry>
        </mxCell>
        <mxCell id="aKXcUhwsYdAueO1rFDs8-62" value="经销商" style="rounded=1;whiteSpace=wrap;html=1;" vertex="1" parent="WIyWlLk6GJQsqaUBKTNV-1">
          <mxGeometry x="-580" y="-260" width="120" height="40" as="geometry" />
        </mxCell>
        <mxCell id="aKXcUhwsYdAueO1rFDs8-67" style="edgeStyle=orthogonalEdgeStyle;rounded=0;orthogonalLoop=1;jettySize=auto;html=1;exitX=0.5;exitY=1;exitDx=0;exitDy=0;entryX=0;entryY=0.5;entryDx=0;entryDy=0;endArrow=none;endFill=0;" edge="1" parent="WIyWlLk6GJQsqaUBKTNV-1" source="aKXcUhwsYdAueO1rFDs8-63" target="aKXcUhwsYdAueO1rFDs8-66">
          <mxGeometry relative="1" as="geometry" />
        </mxCell>
        <mxCell id="aKXcUhwsYdAueO1rFDs8-68" value="n : 1" style="edgeLabel;html=1;align=center;verticalAlign=middle;resizable=0;points=[];" vertex="1" connectable="0" parent="aKXcUhwsYdAueO1rFDs8-67">
          <mxGeometry x="-0.18" y="-2" relative="1" as="geometry">
            <mxPoint as="offset" />
          </mxGeometry>
        </mxCell>
        <mxCell id="aKXcUhwsYdAueO1rFDs8-63" value="门店" style="rounded=1;whiteSpace=wrap;html=1;" vertex="1" parent="WIyWlLk6GJQsqaUBKTNV-1">
          <mxGeometry x="-580" y="-170" width="120" height="40" as="geometry" />
        </mxCell>
        <mxCell id="aKXcUhwsYdAueO1rFDs8-66" value="买手" style="rounded=1;whiteSpace=wrap;html=1;" vertex="1" parent="WIyWlLk6GJQsqaUBKTNV-1">
          <mxGeometry x="-360" y="-90" width="120" height="40" as="geometry" />
        </mxCell>
        <mxCell id="aKXcUhwsYdAueO1rFDs8-72" style="edgeStyle=orthogonalEdgeStyle;rounded=0;orthogonalLoop=1;jettySize=auto;html=1;exitX=1;exitY=0.5;exitDx=0;exitDy=0;entryX=1;entryY=0.5;entryDx=0;entryDy=0;" edge="1" parent="WIyWlLk6GJQsqaUBKTNV-1" source="aKXcUhwsYdAueO1rFDs8-69" target="aKXcUhwsYdAueO1rFDs8-66">
          <mxGeometry relative="1" as="geometry">
            <Array as="points">
              <mxPoint x="-200" y="-240" />
              <mxPoint x="-200" y="-70" />
            </Array>
          </mxGeometry>
        </mxCell>
        <mxCell id="aKXcUhwsYdAueO1rFDs8-74" value="创建&amp;amp;管理" style="edgeLabel;html=1;align=center;verticalAlign=middle;resizable=0;points=[];" vertex="1" connectable="0" parent="aKXcUhwsYdAueO1rFDs8-72">
          <mxGeometry x="-0.1" relative="1" as="geometry">
            <mxPoint x="30" as="offset" />
          </mxGeometry>
        </mxCell>
        <mxCell id="aKXcUhwsYdAueO1rFDs8-97" style="edgeStyle=orthogonalEdgeStyle;rounded=0;orthogonalLoop=1;jettySize=auto;html=1;exitX=0.5;exitY=1;exitDx=0;exitDy=0;entryX=1;entryY=0.5;entryDx=0;entryDy=0;" edge="1" parent="WIyWlLk6GJQsqaUBKTNV-1" source="aKXcUhwsYdAueO1rFDs8-69" target="aKXcUhwsYdAueO1rFDs8-63">
          <mxGeometry relative="1" as="geometry">
            <Array as="points">
              <mxPoint x="-300" y="-150" />
            </Array>
          </mxGeometry>
        </mxCell>
        <mxCell id="aKXcUhwsYdAueO1rFDs8-98" value="创建&amp;amp;管理" style="edgeLabel;html=1;align=center;verticalAlign=middle;resizable=0;points=[];" vertex="1" connectable="0" parent="aKXcUhwsYdAueO1rFDs8-97">
          <mxGeometry x="0.0957" relative="1" as="geometry">
            <mxPoint as="offset" />
          </mxGeometry>
        </mxCell>
        <mxCell id="aKXcUhwsYdAueO1rFDs8-69" value="经销商管理员" style="rounded=1;whiteSpace=wrap;html=1;" vertex="1" parent="WIyWlLk6GJQsqaUBKTNV-1">
          <mxGeometry x="-360" y="-260" width="120" height="40" as="geometry" />
        </mxCell>
        <mxCell id="aKXcUhwsYdAueO1rFDs8-76" style="edgeStyle=orthogonalEdgeStyle;rounded=0;orthogonalLoop=1;jettySize=auto;html=1;exitX=0;exitY=0.5;exitDx=0;exitDy=0;entryX=0.5;entryY=0;entryDx=0;entryDy=0;" edge="1" parent="WIyWlLk6GJQsqaUBKTNV-1" source="aKXcUhwsYdAueO1rFDs8-75" target="aKXcUhwsYdAueO1rFDs8-62">
          <mxGeometry relative="1" as="geometry" />
        </mxCell>
        <mxCell id="aKXcUhwsYdAueO1rFDs8-77" value="创建" style="edgeLabel;html=1;align=center;verticalAlign=middle;resizable=0;points=[];" vertex="1" connectable="0" parent="aKXcUhwsYdAueO1rFDs8-76">
          <mxGeometry x="-0.2333" relative="1" as="geometry">
            <mxPoint as="offset" />
          </mxGeometry>
        </mxCell>
        <mxCell id="aKXcUhwsYdAueO1rFDs8-75" value="品牌方销售" style="rounded=1;whiteSpace=wrap;html=1;" vertex="1" parent="WIyWlLk6GJQsqaUBKTNV-1">
          <mxGeometry x="-360" y="-350" width="120" height="40" as="geometry" />
        </mxCell>
        <mxCell id="aKXcUhwsYdAueO1rFDs8-83" value="创建" style="edgeStyle=orthogonalEdgeStyle;rounded=0;orthogonalLoop=1;jettySize=auto;html=1;exitX=0;exitY=0.5;exitDx=0;exitDy=0;" edge="1" parent="WIyWlLk6GJQsqaUBKTNV-1" source="aKXcUhwsYdAueO1rFDs8-78" target="aKXcUhwsYdAueO1rFDs8-82">
          <mxGeometry relative="1" as="geometry" />
        </mxCell>
        <mxCell id="aKXcUhwsYdAueO1rFDs8-78" value="品牌方商品" style="rounded=1;whiteSpace=wrap;html=1;" vertex="1" parent="WIyWlLk6GJQsqaUBKTNV-1">
          <mxGeometry x="-360" y="-440" width="120" height="40" as="geometry" />
        </mxCell>
        <mxCell id="aKXcUhwsYdAueO1rFDs8-80" value="创建&amp;amp;管理" style="edgeStyle=orthogonalEdgeStyle;rounded=0;orthogonalLoop=1;jettySize=auto;html=1;exitX=1;exitY=0.5;exitDx=0;exitDy=0;entryX=1;entryY=0.5;entryDx=0;entryDy=0;" edge="1" parent="WIyWlLk6GJQsqaUBKTNV-1" source="aKXcUhwsYdAueO1rFDs8-79" target="aKXcUhwsYdAueO1rFDs8-78">
          <mxGeometry x="0.5294" y="-30" relative="1" as="geometry">
            <Array as="points">
              <mxPoint x="-200" y="-510" />
              <mxPoint x="-200" y="-420" />
            </Array>
            <mxPoint x="30" y="30" as="offset" />
          </mxGeometry>
        </mxCell>
        <mxCell id="aKXcUhwsYdAueO1rFDs8-81" style="edgeStyle=orthogonalEdgeStyle;rounded=0;orthogonalLoop=1;jettySize=auto;html=1;exitX=1;exitY=0.5;exitDx=0;exitDy=0;entryX=1;entryY=0.5;entryDx=0;entryDy=0;" edge="1" parent="WIyWlLk6GJQsqaUBKTNV-1" source="aKXcUhwsYdAueO1rFDs8-79" target="aKXcUhwsYdAueO1rFDs8-75">
          <mxGeometry relative="1" as="geometry">
            <Array as="points">
              <mxPoint x="-200" y="-510" />
              <mxPoint x="-200" y="-330" />
            </Array>
          </mxGeometry>
        </mxCell>
        <mxCell id="aKXcUhwsYdAueO1rFDs8-94" style="edgeStyle=orthogonalEdgeStyle;rounded=0;orthogonalLoop=1;jettySize=auto;html=1;exitX=0;exitY=0.5;exitDx=0;exitDy=0;" edge="1" parent="WIyWlLk6GJQsqaUBKTNV-1" source="aKXcUhwsYdAueO1rFDs8-79" target="aKXcUhwsYdAueO1rFDs8-93">
          <mxGeometry relative="1" as="geometry" />
        </mxCell>
        <mxCell id="aKXcUhwsYdAueO1rFDs8-95" value="编辑" style="edgeLabel;html=1;align=center;verticalAlign=middle;resizable=0;points=[];" vertex="1" connectable="0" parent="aKXcUhwsYdAueO1rFDs8-94">
          <mxGeometry x="0.14" y="1" relative="1" as="geometry">
            <mxPoint x="7" y="-1" as="offset" />
          </mxGeometry>
        </mxCell>
        <mxCell id="aKXcUhwsYdAueO1rFDs8-79" value="品牌方IT" style="rounded=1;whiteSpace=wrap;html=1;" vertex="1" parent="WIyWlLk6GJQsqaUBKTNV-1">
          <mxGeometry x="-360" y="-530" width="120" height="40" as="geometry" />
        </mxCell>
        <mxCell id="aKXcUhwsYdAueO1rFDs8-82" value="商品资料" style="rounded=1;whiteSpace=wrap;html=1;" vertex="1" parent="WIyWlLk6GJQsqaUBKTNV-1">
          <mxGeometry x="-580" y="-440" width="120" height="40" as="geometry" />
        </mxCell>
        <mxCell id="aKXcUhwsYdAueO1rFDs8-84" value="" style="endArrow=none;html=1;rounded=0;" edge="1" parent="WIyWlLk6GJQsqaUBKTNV-1">
          <mxGeometry width="50" height="50" relative="1" as="geometry">
            <mxPoint x="-740" y="-650" as="sourcePoint" />
            <mxPoint x="-40" y="-650" as="targetPoint" />
          </mxGeometry>
        </mxCell>
        <mxCell id="aKXcUhwsYdAueO1rFDs8-85" value="账号" style="edgeLabel;html=1;align=center;verticalAlign=middle;resizable=0;points=[];" vertex="1" connectable="0" parent="aKXcUhwsYdAueO1rFDs8-84">
          <mxGeometry x="0.2657" relative="1" as="geometry">
            <mxPoint x="-3" y="-10" as="offset" />
          </mxGeometry>
        </mxCell>
        <mxCell id="aKXcUhwsYdAueO1rFDs8-86" value="业务数据" style="edgeLabel;html=1;align=center;verticalAlign=middle;resizable=0;points=[];" vertex="1" connectable="0" parent="aKXcUhwsYdAueO1rFDs8-84">
          <mxGeometry x="-0.4257" relative="1" as="geometry">
            <mxPoint x="9" y="-10" as="offset" />
          </mxGeometry>
        </mxCell>
        <mxCell id="aKXcUhwsYdAueO1rFDs8-90" style="edgeStyle=orthogonalEdgeStyle;rounded=0;orthogonalLoop=1;jettySize=auto;html=1;" edge="1" parent="WIyWlLk6GJQsqaUBKTNV-1" source="aKXcUhwsYdAueO1rFDs8-87" target="aKXcUhwsYdAueO1rFDs8-88">
          <mxGeometry relative="1" as="geometry" />
        </mxCell>
        <mxCell id="aKXcUhwsYdAueO1rFDs8-96" value="创建" style="edgeLabel;html=1;align=center;verticalAlign=middle;resizable=0;points=[];" vertex="1" connectable="0" parent="aKXcUhwsYdAueO1rFDs8-90">
          <mxGeometry x="-0.0448" relative="1" as="geometry">
            <mxPoint as="offset" />
          </mxGeometry>
        </mxCell>
        <mxCell id="aKXcUhwsYdAueO1rFDs8-91" style="edgeStyle=orthogonalEdgeStyle;rounded=0;orthogonalLoop=1;jettySize=auto;html=1;exitX=0.5;exitY=1;exitDx=0;exitDy=0;entryX=0.5;entryY=0;entryDx=0;entryDy=0;" edge="1" parent="WIyWlLk6GJQsqaUBKTNV-1" source="aKXcUhwsYdAueO1rFDs8-87" target="aKXcUhwsYdAueO1rFDs8-79">
          <mxGeometry relative="1" as="geometry" />
        </mxCell>
        <mxCell id="aKXcUhwsYdAueO1rFDs8-92" value="创建" style="edgeLabel;html=1;align=center;verticalAlign=middle;resizable=0;points=[];" vertex="1" connectable="0" parent="aKXcUhwsYdAueO1rFDs8-91">
          <mxGeometry x="0.0826" y="2" relative="1" as="geometry">
            <mxPoint x="-2" y="-5" as="offset" />
          </mxGeometry>
        </mxCell>
        <mxCell id="aKXcUhwsYdAueO1rFDs8-87" value="系统账号" style="rounded=1;whiteSpace=wrap;html=1;" vertex="1" parent="WIyWlLk6GJQsqaUBKTNV-1">
          <mxGeometry x="-360" y="-624.5" width="120" height="40" as="geometry" />
        </mxCell>
        <mxCell id="aKXcUhwsYdAueO1rFDs8-88" value="品牌信息/系统配置" style="rounded=1;whiteSpace=wrap;html=1;" vertex="1" parent="WIyWlLk6GJQsqaUBKTNV-1">
          <mxGeometry x="-580" y="-624" width="120" height="40" as="geometry" />
        </mxCell>
        <mxCell id="aKXcUhwsYdAueO1rFDs8-93" value="业务配置" style="rounded=1;whiteSpace=wrap;html=1;" vertex="1" parent="WIyWlLk6GJQsqaUBKTNV-1">
          <mxGeometry x="-580" y="-530" width="120" height="40" as="geometry" />
        </mxCell>
        <mxCell id="aKXcUhwsYdAueO1rFDs8-99" value="" style="endArrow=none;html=1;rounded=0;" edge="1" parent="WIyWlLk6GJQsqaUBKTNV-1">
          <mxGeometry width="50" height="50" relative="1" as="geometry">
            <mxPoint x="-700" y="-320" as="sourcePoint" />
            <mxPoint x="-700" y="-550" as="targetPoint" />
          </mxGeometry>
        </mxCell>
        <mxCell id="aKXcUhwsYdAueO1rFDs8-101" value="品牌方门户" style="edgeLabel;html=1;align=center;verticalAlign=middle;resizable=0;points=[];" vertex="1" connectable="0" parent="aKXcUhwsYdAueO1rFDs8-99">
          <mxGeometry x="0.24" y="2" relative="1" as="geometry">
            <mxPoint x="-38" y="36" as="offset" />
          </mxGeometry>
        </mxCell>
        <mxCell id="aKXcUhwsYdAueO1rFDs8-100" value="" style="endArrow=none;html=1;rounded=0;" edge="1" parent="WIyWlLk6GJQsqaUBKTNV-1">
          <mxGeometry width="50" height="50" relative="1" as="geometry">
            <mxPoint x="-700" y="-50" as="sourcePoint" />
            <mxPoint x="-700" y="-280" as="targetPoint" />
          </mxGeometry>
        </mxCell>
        <mxCell id="aKXcUhwsYdAueO1rFDs8-104" value="经销商门户" style="edgeLabel;html=1;align=center;verticalAlign=middle;resizable=0;points=[];" vertex="1" connectable="0" parent="aKXcUhwsYdAueO1rFDs8-100">
          <mxGeometry x="0.113" y="-3" relative="1" as="geometry">
            <mxPoint x="-43" as="offset" />
          </mxGeometry>
        </mxCell>
        <mxCell id="aKXcUhwsYdAueO1rFDs8-102" value="" style="endArrow=none;html=1;rounded=0;" edge="1" parent="WIyWlLk6GJQsqaUBKTNV-1">
          <mxGeometry width="50" height="50" relative="1" as="geometry">
            <mxPoint x="-700" y="-570" as="sourcePoint" />
            <mxPoint x="-700" y="-630" as="targetPoint" />
          </mxGeometry>
        </mxCell>
        <mxCell id="aKXcUhwsYdAueO1rFDs8-103" value="贯信运维" style="edgeLabel;html=1;align=center;verticalAlign=middle;resizable=0;points=[];" vertex="1" connectable="0" parent="aKXcUhwsYdAueO1rFDs8-102">
          <mxGeometry x="0.24" y="2" relative="1" as="geometry">
            <mxPoint x="-38" y="3" as="offset" />
          </mxGeometry>
        </mxCell>
      </root>
    </mxGraphModel>
  </diagram>
</mxfile>
